#!OML:ASF H:\ManfredObstacles\Project 1\Capture day 2\Session 1\male.ASF
:FULLY-SPECIFIED
:DEGREES
197
root 2.51473 15.9456 -14.2202 -164.261 -2.20107 176.324
lowerback 1.90695 -1.16435 -9.32683
upperback 2.23397 -1.87622 -2.364
thorax 1.45598 -1.16549 2.77402
lowerneck -33.444 -1.10235 2.68187
upperneck 41.4396 -1.73699 2.86554
head 24.1619 1.21641 1.03045
rclavicle 5.96354e-015 4.92986e-014
rhumerus -43.1829 5.33564 -91.4622
rradius 64.8693
rwrist 14.7203
rhand -10.9439 -6.60617
rfingers 7.12502
rthumb 15.0745 323.963
lclavicle 5.96354e-015 4.92986e-014
lhumerus -28.1768 -39.2621 90.3867
lradius 86.3326
lwrist -21.3255
lhand -18.4395 7.31851
lfingers 7.12502
lthumb 7.84615 37.1529
rfemur -47.7728 2.14161 16.8582
rtibia 79.7095
rfoot 3.65806 -5.15883
rtoes -19.0611
lfemur -14.7737 -0.0680649 -24.9506
ltibia 35.3152
lfoot 4.15066 22.2323
ltoes -9.02175
198
root 2.4937 15.9638 -14.3878 -164.287 -1.91968 176.36
lowerback 2.24111 -1.29589 -9.25686
upperback 2.2933 -2.0915 -2.32763
thorax 1.35345 -1.27151 2.7818
lowerneck -33.5693 -0.939533 2.65316
upperneck 41.1641 -1.60059 2.90361
head 23.954 1.22365 1.07011
rclavicle 3.06128e-014 4.85035e-014
rhumerus -44.6509 4.72472 -90.3873
rradius 65.3218
rwrist 14.2228
rhand -11.1521 -6.74406
rfingers 7.12502
rthumb 14.8739 323.81
lclavicle 3.06128e-014 4.85035e-014
lhumerus -26.6722 -40.063 89.5346
lradius 86.5557
lwrist -21.3184
lhand -18.5156 7.22267
lfingers 7.12502
lthumb 7.7727 37.0598
rfemur -49.0259 1.3937 17.3
rtibia 80.8462
rfoot 2.88653 -6.68826
rtoes -19.2701
lfemur -13.7772 -0.110731 -25.0156
ltibia 34.6164
lfoot 5.05797 21.8846
ltoes -8.97642
199
root 2.47528 15.9874 -14.5586 -164.287 -1.68095 176.397
lowerback 2.56908 -1.43747 -9.21345
upperback 2.35036 -2.31778 -2.26301
thorax 1.25578 -1.38309 2.83495
lowerneck -33.6681 -0.765459 2.64837
upperneck 40.8711 -1.44442 2.91326
head 23.7227 1.23795 1.0936
rclavicle -3.57812e-015 2.62396e-014
rhumerus -46.2 4.23851 -89.2777
rradius 65.9465
rwrist 13.573
rhand -11.2879 -6.8679
rfingers 7.12502
rthumb 14.7431 323.676
lclavicle -3.57812e-015 2.62396e-014
lhumerus -25.2194 -40.7366 88.6936
lradius 86.9281
lwrist -21.3468
lhand -18.5617 6.99855
lfingers 7.12502
lthumb 7.72818 36.8373
rfemur -50.2638 0.669512 17.7738
rtibia 81.6512
rfoot 2.09899 -8.06529
rtoes -19.4887
lfemur -12.8259 -0.246749 -25.0659
ltibia 33.9134
lfoot 6.15544 21.4099
ltoes -8.9006
200
root 2.4604 16.0153 -14.7326 -164.228 -1.49415 176.419
lowerback 2.87127 -1.60122 -9.22123
upperback 2.38133 -2.57019 -2.17004
thorax 1.15289 -1.50657 2.94708
lowerneck -33.7229 -0.574304 2.6754
upperneck 40.5685 -1.2563 2.88859
head 23.4701 1.26519 1.10066
rclavicle 1.86858e-014 2.8625e-014
rhumerus -47.8283 3.87965 -88.1457
rradius 66.6895
rwrist 12.9006
rhand -11.349 -6.96524
rfingers 7.12502
rthumb 14.6842 323.575
lclavicle 1.86858e-014 2.8625e-014
lhumerus -23.9085 -41.2581 87.9187
lradius 87.4532
lwrist -21.4122
lhand -18.5784 6.67979
lfingers 7.12502
lthumb 7.71212 36.5192
rfemur -51.5075 -0.0410534 18.2663
rtibia 82.1178
rfoot 1.32616 -9.28334
rtoes -19.7056
lfemur -11.9773 -0.449859 -25.109
ltibia 33.2364
lfoot 7.42294 20.7652
ltoes -8.80632
201
root 2.44882 16.0483 -14.9107 -164.1 -1.35145 176.431
lowerback 3.11083 -1.78689 -9.26077
upperback 2.40186 -2.84353 -2.05703
thorax 1.08077 -1.64112 3.0968
lowerneck -33.7608 -0.371634 2.72742
upperneck 40.2558 -1.0506 2.83872
head 23.2079 1.29986 1.09391
rclavicle 1.98785e-014 5.00937e-014
rhumerus -49.4691 3.64211 -87.0197
rradius 67.4963
rwrist 12.2401
rhand -11.3895 -7.03864
rfingers 7.12502
rthumb 14.6452 323.499
lclavicle 1.98785e-014 5.00937e-014
lhumerus -22.7256 -41.6323 87.1968
lradius 88.1081
lwrist -21.529
lhand -18.5695 6.32036
lfingers 7.12502
lthumb 7.72066 36.1594
rfemur -52.7385 -0.700347 18.7729
rtibia 82.2173
rfoot 0.628688 -10.3531
rtoes -19.9718
lfemur -11.255 -0.70042 -25.1366
ltibia 32.598
lfoot 8.76352 19.9957
ltoes -8.66817
202
root 2.44017 16.0858 -15.0937 -163.902 -1.27698 176.445
lowerback 3.272 -2.00808 -9.30476
upperback 2.42258 -3.1526 -1.92076
thorax 1.06074 -1.79484 3.27073
lowerneck -33.6449 -0.133883 2.88821
upperneck 40.2504 -0.792557 2.69806
head 22.4791 1.35692 1.05173
rclavicle 3.93594e-014 -1.59028e-015
rhumerus -51.0766 3.53434 -85.916
rradius 68.3267
rwrist 11.668
rhand -11.4222 -7.08239
rfingers 7.12502
rthumb 14.6138 323.452
lclavicle 3.93594e-014 -1.59028e-015
lhumerus -21.681 -41.8629 86.5346
lradius 88.87
lwrist -21.6654
lhand -18.5475 5.95982
lfingers 7.12502
lthumb 7.74192 35.7981
rfemur -53.9248 -1.31311 19.2955
rtibia 81.9381
rfoot 0.00435372 -11.2922
rtoes -20.2409
lfemur -10.6513 -0.981774 -25.132
ltibia 31.9943
lfoot 10.2159 19.0563
ltoes -8.53123
203
root 2.43393 16.1284 -15.2818 -163.654 -1.27055 176.458
lowerback 3.37497 -2.2656 -9.33721
upperback 2.45499 -3.50112 -1.76801
thorax 1.09315 -1.97031 3.45264
lowerneck -33.7441 0.129739 3.02638
upperneck 39.8931 -0.515194 2.55998
head 22.2408 1.41507 1.0017
rclavicle -8.74653e-015 1.59028e-015
rhumerus -52.6067 3.52952 -84.8537
rradius 69.1596
rwrist 11.2081
rhand -11.4438 -7.10327
rfingers 7.12502
rthumb 14.5929 323.43
lclavicle -8.74653e-015 1.59028e-015
lhumerus -20.7567 -41.968 85.9169
lradius 89.6963
lwrist -21.8143
lhand -18.5292 5.64563
lfingers 7.12502
lthumb 7.75957 35.4832
rfemur -55.0189 -1.87013 19.8197
rtibia 81.2639
rfoot -0.50373 -12.1079
rtoes -20.4834
lfemur -10.1376 -1.27206 -25.0952
ltibia 31.4063
lfoot 11.7211 18.0211
ltoes -8.39308
204
root 2.42861 16.1758 -15.4755 -163.383 -1.32494 176.478
lowerback 3.45066 -2.55442 -9.32616
upperback 2.49176 -3.88584 -1.6061
thorax 1.15025 -2.16418 3.61831
lowerneck -33.8467 0.416449 3.18293
upperneck 39.5244 -0.202202 2.3976
head 22.001 1.4852 0.946152
rclavicle -4.77083e-015 -4.13472e-014
rhumerus -54.0757 3.61208 -83.8447
rradius 69.9967
rwrist 10.8537
rhand -11.4713 -7.09212
rfingers 7.12502
rthumb 14.5665 323.439
lclavicle -4.77083e-015 -4.13472e-014
lhumerus -19.9912 -41.9713 85.3672
lradius 90.57
lwrist -21.937
lhand -18.5085 5.40055
lfingers 7.12502
lthumb 7.77958 35.2374
rfemur -55.9679 -2.36901 20.3272
rtibia 80.1998
rfoot -0.914071 -12.7913
rtoes -20.6938
lfemur -9.66028 -1.57047 -25.0306
ltibia 30.81
lfoot 13.2765 16.943
ltoes -8.25734
205
root 2.4248 16.2276 -15.6747 -163.109 -1.42812 176.511
lowerback 3.509 -2.8673 -9.27169
upperback 2.54571 -4.29845 -1.43305
thorax 1.23848 -2.37337 3.76921
lowerneck -33.9935 0.718566 3.34162
upperneck 39.1667 0.138587 2.21897
head 21.7876 1.56386 0.891882
rclavicle -7.15625e-015 5.96354e-014
rhumerus -55.4561 3.76237 -82.89
rradius 70.8341
rwrist 10.5562
rhand -11.5034 -7.01141
rfingers 7.12502
rthumb 14.5356 323.518
lclavicle -7.15625e-015 5.96354e-014
lhumerus -19.3633 -41.8988 84.8746
lradius 91.4619
lwrist -22.0215
lhand -18.5227 5.27306
lfingers 7.12502
lthumb 7.76583 35.1104
rfemur -56.7362 -2.78676 20.8112
rtibia 78.7535
rfoot -1.24637 -13.3529
rtoes -20.7571
lfemur -9.18844 -1.86761 -24.9297
ltibia 30.1825
lfoot 14.9111 15.8412
ltoes -8.10351
206
root 2.42261 16.282 -15.88 -162.859 -1.5437 176.571
lowerback 3.57231 -3.1886 -9.17615
upperback 2.59217 -4.72134 -1.24955
thorax 1.31684 -2.58623 3.9081
lowerneck -34.0846 1.03183 3.51814
upperneck 38.8307 0.514758 2.0126
head 21.5798 1.65821 0.832318
rclavicle 3.1408e-014 1.35174e-014
rhumerus -56.8212 3.96867 -81.9983
rradius 71.7099
rwrist 10.2798
rhand -11.5283 -6.91711
rfingers 7.12502
rthumb 14.5115 323.61
lclavicle 3.1408e-014 1.35174e-014
lhumerus -18.9494 -41.7745 84.4907
lradius 92.3523
lwrist -22.0666
lhand -18.5506 5.25863
lfingers 7.12502
lthumb 7.73895 35.097
rfemur -57.2944 -3.08326 21.2659
rtibia 76.9518
rfoot -1.5076 -13.7956
rtoes -20.7521
lfemur -8.68164 -2.13917 -24.7871
ltibia 29.5157
lfoot 16.6233 14.7643
ltoes -7.93687
207
root 2.42189 16.3389 -16.091 -162.625 -1.66485 176.664
lowerback 3.6351 -3.51016 -9.03155
upperback 2.63244 -5.1428 -1.05817
thorax 1.38656 -2.7969 4.02769
lowerneck -34.1661 1.32951 3.67062
upperneck 38.5599 0.89618 1.81213
head 21.4196 1.75804 0.786793
rclavicle -1.47101e-014 -2.94201e-014
rhumerus -58.1579 4.21215 -81.166
rradius 72.6264
rwrist 9.98136
rhand -11.5536 -6.78388
rfingers 7.12502
rthumb 14.4872 323.742
lclavicle -1.47101e-014 -2.94201e-014
lhumerus -18.7244 -41.6211 84.2057
lradius 93.223
lwrist -22.0992
lhand -18.6121 5.36999
lfingers 7.12502
lthumb 7.67961 35.2105
rfemur -57.6517 -3.25776 21.6844
rtibia 74.8228
rfoot -1.66762 -14.1045
rtoes -20.6569
lfemur -8.1458 -2.39245 -24.5995
ltibia 28.8086
lfoot 18.4133 13.7453
ltoes -7.71514
